<?xml version="1.0" encoding="utf-8"?>
<!-- Generator: Adobe Illustrator 16.0.3, SVG Export Plug-In . SVG Version: 6.00 Build 0)  -->
<!DOCTYPE svg PUBLIC "-//W3C//DTD SVG 1.1//EN" "http://www.w3.org/Graphics/SVG/1.1/DTD/svg11.dtd">
<svg version="1.1" id="Layer_1" xmlns="http://www.w3.org/2000/svg" xmlns:xlink="http://www.w3.org/1999/xlink" x="0px" y="0px"
	 width="121.645px" height="189.694px" viewBox="0 0 121.645 189.694" enable-background="new 0 0 121.645 189.694"
	 xml:space="preserve">
<g>
	<g>
		<linearGradient id="SVGID_1_" gradientUnits="userSpaceOnUse" x1="9.541" y1="134.2339" x2="112.3779" y2="31.397">
			<stop  offset="0.0247" style="stop-color:#666666"/>
			<stop  offset="0.0556" style="stop-color:#567556"/>
			<stop  offset="0.1259" style="stop-color:#379237"/>
			<stop  offset="0.1995" style="stop-color:#1FA91F"/>
			<stop  offset="0.2769" style="stop-color:#0DB90D"/>
			<stop  offset="0.3607" style="stop-color:#03C303"/>
			<stop  offset="0.4624" style="stop-color:#00C600"/>
		</linearGradient>
		<path fill="url(#SVGID_1_)" stroke="#468E00" stroke-width="2" stroke-miterlimit="10" d="M60.959,3.932
			c-31.977,0-57.83,25.854-57.83,58.057c0,8.391,1.814,16.101,4.763,23.358l49.893,96.838c1.36,2.721,4.989,2.721,6.35,0
			l49.893-96.838c3.175-7.03,4.763-14.967,4.763-23.358C118.789,29.786,92.936,3.932,60.959,3.932z M60.959,90.791
			c-16.102,0-29.255-13.153-29.255-29.255c0-16.102,13.153-29.255,29.255-29.255s29.255,13.153,29.255,29.255
			C90.214,77.637,77.061,90.791,60.959,90.791z"/>
	</g>
	<path d="M60.959,90.791c-16.102,0-29.255-13.153-29.255-29.255c0-16.102,13.153-29.255,29.255-29.255s29.255,13.153,29.255,29.255
		C90.214,77.637,77.061,90.791,60.959,90.791z"/>
</g>
</svg>
